<svg width="220" height="204" viewBox="0 0 220 204" fill="none" xmlns="http://www.w3.org/2000/svg">
<rect width="204" height="204" transform="translate(16)" fill="white"/>
<path d="M177.751 161.751C161.904 177.597 140.411 186.5 118 186.5C95.5892 186.5 74.0963 177.597 58.2495 161.751L118 102L177.751 161.751Z" fill="#90C4FC"/>
<path d="M35.8668 81.6406C40.3968 62.906 51.1954 46.2831 66.4715 34.5294C81.7475 22.7757 100.583 16.5978 119.853 17.0203L118 101.5L35.8668 81.6406Z" fill="#60A8FB"/>
<path d="M59.3014 162.284C48.6099 151.96 40.8308 138.998 36.749 124.706C32.6672 110.415 32.4272 95.2997 36.053 80.8859L118 101.5L59.3014 162.284Z" fill="#BAD9FB"/>
<path d="M115.051 17.0515C135.483 16.338 155.481 23.0564 171.338 35.9614C187.195 48.8664 197.835 67.0827 201.287 87.2338L118 101.5L115.051 17.0515Z" fill="#3A85F4"/>
<path d="M200.715 84.2229C203.67 98.3711 202.947 113.041 198.614 126.83C194.282 140.619 186.484 153.066 175.968 162.981L118 101.5L200.715 84.2229Z" fill="#B3D0F0"/>
<g filter="url(#filter0_d_13_4782)">
<path d="M6 107.44C6 105.162 6 104.023 6.45035 103.156C6.82985 102.426 7.42553 101.83 8.1561 101.45C9.02306 101 10.162 101 12.44 101H78.56C80.838 101 81.9769 101 82.8439 101.45C83.5745 101.83 84.1702 102.426 84.5497 103.156C85 104.023 85 105.162 85 107.44V114.39C85 114.959 85 115.244 84.8874 115.461C84.7925 115.644 84.6436 115.793 84.461 115.887C84.2442 116 83.9595 116 83.39 116H12.44C10.162 116 9.02306 116 8.1561 115.55C7.42553 115.17 6.82985 114.574 6.45035 113.844C6 112.977 6 111.838 6 109.56V107.44Z" fill="#1D1D1F" shape-rendering="crispEdges"/>
<path d="M83.0252 108.896C83.2813 108.502 83.4093 108.305 83.5676 108.248C83.6941 108.202 83.8336 108.209 83.9546 108.268C84.1061 108.341 84.2128 108.551 84.4263 108.97L87.4772 114.957C87.6907 115.376 87.7974 115.586 87.7676 115.751C87.7438 115.884 87.6677 116.001 87.5565 116.076C87.4174 116.171 87.1826 116.159 86.7131 116.134L80.002 115.782C79.5325 115.758 79.2978 115.745 79.1692 115.637C79.0666 115.55 79.0031 115.426 78.9933 115.292C78.981 115.124 79.109 114.927 79.3651 114.532L83.0252 108.896Z" fill="#1D1D1F"/>
<path d="M15.757 107.163H14.5617C14.5276 106.967 14.4648 106.793 14.3731 106.642C14.2815 106.489 14.1675 106.359 14.0312 106.252C13.8948 106.146 13.7393 106.066 13.5645 106.012C13.392 105.957 13.2055 105.929 13.0052 105.929C12.6494 105.929 12.3341 106.019 12.0592 106.198C11.7844 106.375 11.5692 106.635 11.4136 106.978C11.2581 107.319 11.1803 107.735 11.1803 108.227C11.1803 108.728 11.2581 109.15 11.4136 109.493C11.5713 109.834 11.7865 110.092 12.0592 110.266C12.3341 110.439 12.6483 110.525 13.002 110.525C13.1981 110.525 13.3813 110.5 13.5518 110.449C13.7243 110.395 13.8788 110.317 14.0152 110.215C14.1537 110.113 14.2698 109.987 14.3635 109.838C14.4594 109.689 14.5255 109.518 14.5617 109.327L15.757 109.333C15.7123 109.644 15.6153 109.936 15.4662 110.209C15.3192 110.482 15.1263 110.722 14.8877 110.931C14.6491 111.138 14.3699 111.3 14.0503 111.417C13.7307 111.532 13.376 111.589 12.9861 111.589C12.4108 111.589 11.8973 111.456 11.4456 111.19C10.9939 110.924 10.6381 110.539 10.3781 110.036C10.1182 109.533 9.98819 108.93 9.98819 108.227C9.98819 107.522 10.1192 106.919 10.3813 106.418C10.6434 105.915 11.0003 105.531 11.452 105.265C11.9037 104.998 12.415 104.865 12.9861 104.865C13.3504 104.865 13.6892 104.916 14.0024 105.018C14.3156 105.121 14.5947 105.271 14.8398 105.469C15.0848 105.665 15.2861 105.906 15.4438 106.191C15.6036 106.475 15.708 106.799 15.757 107.163ZM17.6043 111.5H16.3387L18.643 104.955H20.1068L22.4143 111.5H21.1487L19.4005 106.297H19.3493L17.6043 111.5ZM17.6459 108.934H21.0976V109.886H17.6459V108.934ZM23.2765 104.955H24.7275L26.6706 109.697H26.7473L28.6905 104.955H30.1415V111.5H29.0037V107.003H28.943L27.1341 111.481H26.2839L24.475 106.994H24.4142V111.5H23.2765V104.955ZM37.7912 104.955H38.9769V109.231C38.9769 109.7 38.8661 110.112 38.6445 110.468C38.4251 110.824 38.1161 111.102 37.7177 111.302C37.3192 111.5 36.8537 111.599 36.321 111.599C35.7862 111.599 35.3196 111.5 34.9212 111.302C34.5227 111.102 34.2138 110.824 33.9943 110.468C33.7749 110.112 33.6651 109.7 33.6651 109.231V104.955H34.8509V109.132C34.8509 109.404 34.9105 109.647 35.0298 109.86C35.1513 110.074 35.3217 110.241 35.5412 110.362C35.7607 110.482 36.0206 110.541 36.321 110.541C36.6214 110.541 36.8814 110.482 37.1009 110.362C37.3224 110.241 37.4929 110.074 37.6122 109.86C37.7315 109.647 37.7912 109.404 37.7912 109.132V104.955ZM43.8229 106.754C43.7931 106.475 43.6673 106.257 43.4458 106.102C43.2263 105.946 42.9408 105.869 42.5892 105.869C42.3421 105.869 42.1301 105.906 41.9532 105.98C41.7764 106.055 41.6411 106.156 41.5473 106.284C41.4536 106.412 41.4056 106.558 41.4035 106.722C41.4035 106.858 41.4344 106.977 41.4962 107.077C41.5601 107.177 41.6464 107.262 41.7551 107.332C41.8637 107.401 41.9841 107.458 42.1162 107.505C42.2483 107.552 42.3815 107.591 42.5157 107.623L43.1294 107.777C43.3765 107.834 43.6141 107.912 43.8421 108.01C44.0722 108.108 44.2778 108.232 44.4589 108.381C44.6421 108.53 44.787 108.71 44.8936 108.921C45.0001 109.132 45.0534 109.379 45.0534 109.662C45.0534 110.046 44.9553 110.384 44.7593 110.675C44.5633 110.965 44.2799 111.192 43.9092 111.356C43.5406 111.518 43.0942 111.599 42.57 111.599C42.0608 111.599 41.6187 111.52 41.2437 111.363C40.8708 111.205 40.5789 110.975 40.368 110.672C40.1592 110.37 40.0463 110.001 40.0292 109.566H41.1958C41.2128 109.794 41.2831 109.984 41.4067 110.135C41.5303 110.287 41.6911 110.4 41.8893 110.474C42.0896 110.549 42.3133 110.586 42.5605 110.586C42.8183 110.586 43.0441 110.548 43.238 110.471C43.434 110.392 43.5874 110.283 43.6982 110.145C43.809 110.004 43.8655 109.84 43.8676 109.653C43.8655 109.482 43.8154 109.342 43.7174 109.231C43.6194 109.118 43.482 109.024 43.3051 108.95C43.1304 108.873 42.9259 108.805 42.6915 108.745L41.9468 108.553C41.4078 108.415 40.9816 108.205 40.6684 107.924C40.3573 107.64 40.2018 107.264 40.2018 106.795C40.2018 106.41 40.3062 106.072 40.515 105.782C40.7259 105.493 41.0125 105.268 41.3747 105.108C41.7369 104.946 42.1471 104.865 42.6052 104.865C43.0697 104.865 43.4767 104.946 43.8261 105.108C44.1776 105.268 44.4536 105.49 44.6539 105.776C44.8541 106.059 44.9575 106.385 44.9639 106.754H43.8229ZM46.8455 111.5H45.5799L47.8842 104.955H49.348L51.6555 111.5H50.3899L48.6417 106.297H48.5906L46.8455 111.5ZM46.8871 108.934H50.3388V109.886H46.8871V108.934ZM59.5809 104.955V111.5H58.3952V106.108H58.3568L56.8259 107.086V106L58.4527 104.955H59.5809ZM63.6398 111.589C63.3266 111.587 63.0209 111.533 62.7226 111.426C62.4243 111.318 62.1558 111.142 61.9172 110.899C61.6785 110.654 61.4889 110.329 61.3483 109.924C61.2077 109.517 61.1384 109.013 61.1405 108.413C61.1405 107.852 61.2002 107.353 61.3195 106.914C61.4388 106.475 61.6104 106.104 61.8341 105.801C62.0578 105.497 62.3273 105.265 62.6427 105.105C62.9601 104.945 63.3149 104.865 63.7069 104.865C64.1182 104.865 64.4825 104.946 64.8 105.108C65.1196 105.27 65.3774 105.491 65.5734 105.773C65.7694 106.052 65.8909 106.367 65.9378 106.719H64.7712C64.7116 106.467 64.589 106.267 64.4037 106.118C64.2204 105.967 63.9882 105.891 63.7069 105.891C63.2531 105.891 62.9037 106.088 62.6586 106.482C62.4157 106.876 62.2932 107.418 62.2911 108.106H62.3358C62.4403 107.918 62.5756 107.757 62.7417 107.623C62.9079 107.489 63.0954 107.386 63.3042 107.313C63.5152 107.239 63.7378 107.201 63.9722 107.201C64.3557 107.201 64.6998 107.293 65.0045 107.476C65.3113 107.659 65.5542 107.912 65.7332 108.234C65.9122 108.553 66.0006 108.92 65.9985 109.333C66.0006 109.763 65.9026 110.15 65.7045 110.493C65.5063 110.834 65.2304 111.103 64.8767 111.299C64.523 111.495 64.1107 111.592 63.6398 111.589ZM63.6334 110.631C63.8657 110.631 64.0734 110.574 64.2567 110.461C64.4399 110.348 64.5848 110.196 64.6913 110.004C64.7979 109.812 64.8501 109.597 64.8479 109.359C64.8501 109.124 64.7989 108.912 64.6945 108.723C64.5922 108.533 64.4506 108.383 64.2694 108.272C64.0883 108.161 63.8817 108.106 63.6494 108.106C63.4768 108.106 63.316 108.139 63.1668 108.205C63.0177 108.271 62.8877 108.363 62.7769 108.48C62.6661 108.595 62.5787 108.729 62.5148 108.882C62.453 109.034 62.4211 109.196 62.4189 109.368C62.4211 109.596 62.4743 109.806 62.5787 109.998C62.6831 110.19 62.827 110.343 63.0102 110.458C63.1934 110.573 63.4012 110.631 63.6334 110.631ZM67.523 111.57C67.3291 111.57 67.1629 111.502 67.0244 111.366C66.8859 111.229 66.8177 111.063 66.8199 110.867C66.8177 110.675 66.8859 110.511 67.0244 110.375C67.1629 110.239 67.3291 110.17 67.523 110.17C67.7105 110.17 67.8735 110.239 68.012 110.375C68.1526 110.511 68.224 110.675 68.2261 110.867C68.224 110.997 68.1899 111.115 68.1238 111.222C68.0599 111.328 67.9747 111.414 67.8682 111.478C67.7638 111.539 67.6487 111.57 67.523 111.57ZM69.4366 111.5L72.2203 105.99V105.945H68.9892V104.955H73.4476V105.968L70.6671 111.5H69.4366ZM77.9788 110.273V109.928C77.9788 109.674 78.032 109.441 78.1386 109.228C78.2472 109.015 78.4049 108.843 78.6116 108.713C78.8183 108.583 79.0686 108.518 79.3627 108.518C79.6652 108.518 79.9188 108.583 80.1233 108.713C80.3279 108.841 80.4823 109.011 80.5867 109.224C80.6933 109.438 80.7465 109.672 80.7465 109.928V110.273C80.7465 110.526 80.6933 110.76 80.5867 110.973C80.4802 111.186 80.3236 111.357 80.1169 111.487C79.9124 111.617 79.661 111.682 79.3627 111.682C79.0644 111.682 78.8119 111.617 78.6052 111.487C78.3985 111.357 78.2419 111.186 78.1354 110.973C78.031 110.76 77.9788 110.526 77.9788 110.273ZM78.8129 109.928V110.273C78.8129 110.441 78.8534 110.596 78.9344 110.736C79.0154 110.877 79.1581 110.947 79.3627 110.947C79.5693 110.947 79.711 110.878 79.7877 110.739C79.8666 110.599 79.906 110.443 79.906 110.273V109.928C79.906 109.757 79.8687 109.602 79.7941 109.461C79.7195 109.318 79.5757 109.247 79.3627 109.247C79.1624 109.247 79.0207 109.318 78.9376 109.461C78.8545 109.602 78.8129 109.757 78.8129 109.928ZM74.6517 106.527V106.182C74.6517 105.926 74.7061 105.692 74.8147 105.479C74.9234 105.266 75.0811 105.095 75.2877 104.967C75.4944 104.837 75.7448 104.772 76.0388 104.772C76.3392 104.772 76.5917 104.837 76.7963 104.967C77.0029 105.095 77.1585 105.266 77.2629 105.479C77.3673 105.692 77.4195 105.926 77.4195 106.182V106.527C77.4195 106.783 77.3662 107.017 77.2597 107.23C77.1553 107.441 76.9997 107.61 76.7931 107.738C76.5864 107.866 76.335 107.93 76.0388 107.93C75.7384 107.93 75.4848 107.866 75.2781 107.738C75.0736 107.61 74.9181 107.44 74.8115 107.227C74.705 107.014 74.6517 106.781 74.6517 106.527ZM75.4923 106.182V106.527C75.4923 106.697 75.5317 106.853 75.6105 106.994C75.6915 107.132 75.8343 107.201 76.0388 107.201C76.2433 107.201 76.384 107.132 76.4607 106.994C76.5395 106.853 76.5789 106.697 76.5789 106.527V106.182C76.5789 106.011 76.5416 105.856 76.4671 105.715C76.3925 105.572 76.2497 105.501 76.0388 105.501C75.8364 105.501 75.6947 105.572 75.6137 105.715C75.5328 105.858 75.4923 106.013 75.4923 106.182ZM75.0161 111.5L79.5161 104.955H80.3151L75.8151 111.5H75.0161Z" fill="white"/>
</g>
<defs>
<filter id="filter0_d_13_4782" x="0" y="97" width="93.7726" height="27.1516" filterUnits="userSpaceOnUse" color-interpolation-filters="sRGB">
<feFlood flood-opacity="0" result="BackgroundImageFix"/>
<feColorMatrix in="SourceAlpha" type="matrix" values="0 0 0 0 0 0 0 0 0 0 0 0 0 0 0 0 0 0 127 0" result="hardAlpha"/>
<feOffset dy="2"/>
<feGaussianBlur stdDeviation="3"/>
<feComposite in2="hardAlpha" operator="out"/>
<feColorMatrix type="matrix" values="0 0 0 0 0 0 0 0 0 0 0 0 0 0 0 0 0 0 0.18 0"/>
<feBlend mode="normal" in2="BackgroundImageFix" result="effect1_dropShadow_13_4782"/>
<feBlend mode="normal" in="SourceGraphic" in2="effect1_dropShadow_13_4782" result="shape"/>
</filter>
</defs>
</svg>
