<svg width="20" height="21" viewBox="0 0 20 21" fill="none" xmlns="http://www.w3.org/2000/svg">
<g clip-path="url(#clip0_193_382)">
<path d="M10 13C11.3807 13 12.5 11.8807 12.5 10.5C12.5 9.11929 11.3807 8 10 8C8.61929 8 7.5 9.11929 7.5 10.5C7.5 11.8807 8.61929 13 10 13Z" stroke="#EC6316" stroke-width="1.8" stroke-linecap="round" stroke-linejoin="round"/>
<path d="M16.1666 12.9999C16.0557 13.2513 16.0226 13.5301 16.0716 13.8004C16.1206 14.0707 16.2495 14.3202 16.4416 14.5166L16.4916 14.5666C16.6465 14.7214 16.7695 14.9052 16.8533 15.1075C16.9372 15.3098 16.9804 15.5267 16.9804 15.7458C16.9804 15.9648 16.9372 16.1817 16.8533 16.384C16.7695 16.5863 16.6465 16.7701 16.4916 16.9249C16.3368 17.0799 16.153 17.2028 15.9507 17.2867C15.7483 17.3706 15.5314 17.4137 15.3124 17.4137C15.0934 17.4137 14.8765 17.3706 14.6742 17.2867C14.4719 17.2028 14.288 17.0799 14.1332 16.9249L14.0833 16.8749C13.8869 16.6828 13.6374 16.5539 13.3671 16.5049C13.0967 16.4559 12.8179 16.489 12.5666 16.5999C12.3201 16.7056 12.1099 16.881 11.9618 17.1045C11.8138 17.3281 11.7343 17.5901 11.7333 17.8583V17.9999C11.7333 18.4419 11.5577 18.8659 11.2451 19.1784C10.9325 19.491 10.5086 19.6666 10.0666 19.6666C9.62456 19.6666 9.20063 19.491 8.88807 19.1784C8.57551 18.8659 8.39992 18.4419 8.39992 17.9999V17.9249C8.39347 17.6491 8.30418 17.3816 8.14368 17.1572C7.98317 16.9328 7.75886 16.7618 7.49992 16.6666C7.24857 16.5557 6.96976 16.5226 6.69943 16.5716C6.4291 16.6206 6.17965 16.7495 5.98325 16.9416L5.93325 16.9916C5.77846 17.1465 5.59465 17.2695 5.39232 17.3533C5.18999 17.4372 4.97311 17.4804 4.75408 17.4804C4.53506 17.4804 4.31818 17.4372 4.11585 17.3533C3.91352 17.2695 3.72971 17.1465 3.57492 16.9916C3.41996 16.8368 3.29703 16.653 3.21315 16.4507C3.12928 16.2483 3.08611 16.0314 3.08611 15.8124C3.08611 15.5934 3.12928 15.3765 3.21315 15.1742C3.29703 14.9719 3.41996 14.788 3.57492 14.6332L3.62492 14.5833C3.81703 14.3869 3.94591 14.1374 3.99492 13.8671C4.04394 13.5967 4.01085 13.3179 3.89992 13.0666C3.79428 12.8201 3.61888 12.6099 3.39531 12.4618C3.17173 12.3138 2.90974 12.2343 2.64159 12.2333H2.49992C2.05789 12.2333 1.63397 12.0577 1.32141 11.7451C1.00885 11.4325 0.833252 11.0086 0.833252 10.5666C0.833252 10.1246 1.00885 9.70063 1.32141 9.38807C1.63397 9.07551 2.05789 8.89992 2.49992 8.89992H2.57492C2.85075 8.89347 3.11826 8.80418 3.34267 8.64368C3.56708 8.48317 3.73801 8.25886 3.83325 7.99992C3.94418 7.74857 3.97727 7.46976 3.92826 7.19943C3.87924 6.9291 3.75037 6.67965 3.55825 6.48325L3.50825 6.43325C3.35329 6.27846 3.23036 6.09465 3.14649 5.89232C3.06261 5.68999 3.01944 5.47311 3.01944 5.25408C3.01944 5.03506 3.06261 4.81818 3.14649 4.61585C3.23036 4.41352 3.35329 4.22971 3.50825 4.07492C3.66304 3.91996 3.84685 3.79703 4.04918 3.71315C4.25151 3.62928 4.46839 3.58611 4.68742 3.58611C4.90644 3.58611 5.12332 3.62928 5.32565 3.71315C5.52798 3.79703 5.7118 3.91996 5.86658 4.07492L5.91658 4.12492C6.11298 4.31703 6.36243 4.44591 6.63276 4.49492C6.90309 4.54394 7.1819 4.51085 7.43325 4.39992H7.49992C7.74639 4.29428 7.9566 4.11888 8.10466 3.89531C8.25272 3.67173 8.33218 3.40974 8.33325 3.14159V2.99992C8.33325 2.55789 8.50885 2.13397 8.82141 1.82141C9.13397 1.50885 9.55789 1.33325 9.99992 1.33325C10.4419 1.33325 10.8659 1.50885 11.1784 1.82141C11.491 2.13397 11.6666 2.55789 11.6666 2.99992V3.07492C11.6677 3.34307 11.7471 3.60506 11.8952 3.82864C12.0432 4.05221 12.2534 4.22762 12.4999 4.33325C12.7513 4.44418 13.0301 4.47727 13.3004 4.42826C13.5707 4.37924 13.8202 4.25037 14.0166 4.05825L14.0666 4.00825C14.2214 3.85329 14.4052 3.73036 14.6075 3.64649C14.8098 3.56261 15.0267 3.51944 15.2458 3.51944C15.4648 3.51944 15.6817 3.56261 15.884 3.64649C16.0863 3.73036 16.2701 3.85329 16.4249 4.00825C16.5799 4.16304 16.7028 4.34685 16.7867 4.54918C16.8706 4.75151 16.9137 4.96839 16.9137 5.18742C16.9137 5.40644 16.8706 5.62332 16.7867 5.82565C16.7028 6.02798 16.5799 6.2118 16.4249 6.36658L16.3749 6.41658C16.1828 6.61298 16.0539 6.86243 16.0049 7.13276C15.9559 7.40309 15.989 7.6819 16.0999 7.93325V7.99992C16.2056 8.24639 16.381 8.4566 16.6045 8.60466C16.8281 8.75272 17.0901 8.83218 17.3583 8.83325H17.4999C17.9419 8.83325 18.3659 9.00885 18.6784 9.32141C18.991 9.63397 19.1666 10.0579 19.1666 10.4999C19.1666 10.9419 18.991 11.3659 18.6784 11.6784C18.3659 11.991 17.9419 12.1666 17.4999 12.1666H17.4249C17.1568 12.1677 16.8948 12.2471 16.6712 12.3952C16.4476 12.5432 16.2722 12.7534 16.1666 12.9999Z" stroke="#EC6316" stroke-width="1.8" stroke-linecap="round" stroke-linejoin="round"/>
</g>
<defs>
<clipPath id="clip0_193_382">
<rect width="20" height="20" fill="white" transform="translate(0 0.5)"/>
</clipPath>
</defs>
</svg>
